<?xml version="1.0" encoding="utf-8"?>
<!-- Generator: Adobe Illustrator 17.0.1, SVG Export Plug-In . SVG Version: 6.00 Build 0)  -->
<!DOCTYPE svg PUBLIC "-//W3C//DTD SVG 1.1//EN" "http://www.w3.org/Graphics/SVG/1.1/DTD/svg11.dtd">
<svg version="1.1" id="Layer_1" xmlns="http://www.w3.org/2000/svg" xmlns:xlink="http://www.w3.org/1999/xlink" x="0px" y="0px"
	 width="251px" height="67.625px" viewBox="0 0 251 67.625" enable-background="new 0 0 251 67.625" xml:space="preserve">
<g>
	<g>
		<path fill="#3B4042" d="M133.507,22.552c6.818,0,11.904,3.856,11.904,7.657c0,2.347-1.733,3.521-3.8,3.521
			c-3.856,0-2.459-4.806-8.327-4.806c-3.186,0-6.93,2.18-6.93,9.557c0,5.086,2.403,8.383,6.874,8.383c5.7,0,4.471-5.254,8.774-5.254
			c2.068,0,3.409,1.509,3.409,3.13c0,3.577-4.024,8.495-12.407,8.495c-10.06,0-14.81-6.203-14.81-14.754
			C118.194,29.091,123.503,22.552,133.507,22.552z"/>
		<path fill="#3B4042" d="M147.421,15.622c0-2.683,1.621-4.08,4.08-4.08s4.08,1.397,4.08,4.08v33.533c0,2.683-1.621,4.08-4.08,4.08
			s-4.08-1.397-4.08-4.08V15.622z"/>
		<path fill="#3B4042" d="M173.576,22.552c9.836,0,15.089,6.706,15.089,15.313c0,8.159-3.968,15.369-15.089,15.369
			c-11.122,0-15.09-7.209-15.09-15.369C158.486,29.258,163.74,22.552,173.576,22.552z M173.576,47.198
			c4.862,0,6.93-4.359,6.93-9.333c0-5.309-2.18-9.277-6.93-9.277s-6.93,3.968-6.93,9.277
			C166.646,42.839,168.714,47.198,173.576,47.198z"/>
		<path fill="#3B4042" d="M218.788,49.154c0,2.459-1.118,4.08-3.688,4.08c-2.571,0-3.689-1.621-3.689-4.08v-1.062h-0.112
			c-2.291,3.018-5.254,5.142-9.892,5.142c-4.918,0-10.283-2.459-10.283-10.73V26.632c0-2.18,0.894-4.08,4.08-4.08
			s4.08,1.9,4.08,4.08v14.251c0,3.297,1.621,5.645,5.142,5.645c2.85,0,6.204-2.347,6.204-6.427V26.632c0-2.18,0.894-4.08,4.08-4.08
			c3.186,0,4.08,1.9,4.08,4.08V49.154z"/>
		<path fill="#3B4042" d="M250.139,49.378c0,2.515-1.174,3.856-3.688,3.856c-2.403,0-3.689-1.341-3.689-3.856v-1.286h-0.112
			c-1.341,3.465-4.639,5.142-8.607,5.142c-6.818,0-12.798-4.974-12.798-15.537c0-7.824,3.968-15.145,12.575-15.145
			c3.633,0,6.427,1.509,8.048,4.136h0.112V15.622c0-2.683,1.621-4.08,4.08-4.08c2.459,0,4.08,1.397,4.08,4.08V49.378z
			 M235.888,46.863c4.75,0,6.539-4.247,6.539-8.886c0-4.192-1.565-9.109-6.539-9.054c-5.197,0-6.483,5.253-6.483,9.054
			C229.405,42.783,231.529,46.751,235.888,46.863z"/>
	</g>
	<g>
		<path fill="#3B4042" d="M116.789,63.29c0,0.578-0.209,1.028-0.628,1.351c-0.419,0.323-0.988,0.485-1.706,0.485
			c-0.778,0-1.377-0.1-1.796-0.301v-0.736c0.269,0.114,0.563,0.203,0.88,0.269c0.317,0.066,0.631,0.099,0.943,0.099
			c0.509,0,0.892-0.096,1.149-0.29c0.257-0.193,0.386-0.462,0.386-0.806c0-0.228-0.046-0.414-0.137-0.559
			c-0.091-0.145-0.244-0.279-0.458-0.402c-0.214-0.123-0.539-0.262-0.976-0.417c-0.611-0.219-1.047-0.478-1.309-0.777
			c-0.262-0.299-0.393-0.69-0.393-1.172c0-0.506,0.19-0.908,0.57-1.208c0.38-0.299,0.883-0.449,1.508-0.449
			c0.652,0,1.253,0.12,1.8,0.359l-0.238,0.665c-0.542-0.228-1.069-0.341-1.58-0.341c-0.404,0-0.72,0.087-0.947,0.26
			c-0.228,0.174-0.341,0.415-0.341,0.723c0,0.228,0.042,0.414,0.126,0.559c0.084,0.145,0.225,0.278,0.424,0.4
			c0.199,0.121,0.504,0.255,0.914,0.402c0.688,0.245,1.162,0.509,1.421,0.79C116.66,62.476,116.789,62.841,116.789,63.29z"/>
		<path fill="#3B4042" d="M120.586,65.036l-0.148-0.7h-0.036c-0.245,0.308-0.49,0.517-0.734,0.626
			c-0.244,0.109-0.548,0.164-0.914,0.164c-0.488,0-0.87-0.126-1.147-0.377c-0.277-0.251-0.415-0.609-0.415-1.073
			c0-0.994,0.795-1.514,2.384-1.562l0.835-0.027v-0.305c0-0.386-0.083-0.671-0.249-0.855c-0.166-0.184-0.432-0.276-0.797-0.276
			c-0.41,0-0.874,0.126-1.392,0.377l-0.229-0.57c0.242-0.132,0.508-0.235,0.797-0.31c0.289-0.075,0.578-0.112,0.869-0.112
			c0.587,0,1.021,0.13,1.304,0.391c0.283,0.26,0.424,0.678,0.424,1.253v3.358H120.586z M118.902,64.511
			c0.464,0,0.828-0.127,1.093-0.381c0.265-0.255,0.397-0.611,0.397-1.069v-0.444l-0.745,0.031c-0.593,0.021-1.02,0.113-1.282,0.276
			c-0.262,0.163-0.393,0.417-0.393,0.761c0,0.269,0.082,0.475,0.245,0.615C118.381,64.441,118.609,64.511,118.902,64.511z"/>
		<path fill="#3B4042" d="M125.24,65.036l-0.148-0.7h-0.036c-0.245,0.308-0.49,0.517-0.734,0.626
			c-0.244,0.109-0.548,0.164-0.914,0.164c-0.488,0-0.87-0.126-1.147-0.377c-0.277-0.251-0.415-0.609-0.415-1.073
			c0-0.994,0.795-1.514,2.384-1.562l0.835-0.027v-0.305c0-0.386-0.083-0.671-0.249-0.855c-0.166-0.184-0.432-0.276-0.797-0.276
			c-0.41,0-0.874,0.126-1.392,0.377l-0.229-0.57c0.242-0.132,0.508-0.235,0.797-0.31c0.289-0.075,0.578-0.112,0.869-0.112
			c0.587,0,1.021,0.13,1.304,0.391c0.283,0.26,0.424,0.678,0.424,1.253v3.358H125.24z M123.556,64.511
			c0.464,0,0.828-0.127,1.093-0.381c0.265-0.255,0.397-0.611,0.397-1.069v-0.444l-0.745,0.031c-0.593,0.021-1.02,0.113-1.282,0.276
			c-0.262,0.163-0.393,0.417-0.393,0.761c0,0.269,0.082,0.475,0.245,0.615C123.034,64.441,123.263,64.511,123.556,64.511z"/>
		<path fill="#3B4042" d="M130.683,63.29c0,0.578-0.21,1.028-0.628,1.351c-0.419,0.323-0.988,0.485-1.706,0.485
			c-0.778,0-1.377-0.1-1.796-0.301v-0.736c0.269,0.114,0.562,0.203,0.88,0.269c0.317,0.066,0.631,0.099,0.943,0.099
			c0.509,0,0.892-0.096,1.149-0.29c0.257-0.193,0.386-0.462,0.386-0.806c0-0.228-0.046-0.414-0.137-0.559
			c-0.091-0.145-0.244-0.279-0.458-0.402c-0.214-0.123-0.54-0.262-0.976-0.417c-0.611-0.219-1.047-0.478-1.309-0.777
			c-0.262-0.299-0.393-0.69-0.393-1.172c0-0.506,0.19-0.908,0.57-1.208c0.38-0.299,0.883-0.449,1.509-0.449
			c0.652,0,1.252,0.12,1.8,0.359l-0.238,0.665c-0.542-0.228-1.069-0.341-1.58-0.341c-0.404,0-0.72,0.087-0.948,0.26
			c-0.228,0.174-0.341,0.415-0.341,0.723c0,0.228,0.042,0.414,0.126,0.559c0.084,0.145,0.225,0.278,0.424,0.4
			c0.199,0.121,0.503,0.255,0.913,0.402c0.688,0.245,1.162,0.509,1.421,0.79C130.554,62.476,130.683,62.841,130.683,63.29z"/>
		<path fill="#3B4042" d="M137.656,60.385c0,0.665-0.227,1.176-0.68,1.533c-0.454,0.357-1.102,0.536-1.946,0.536h-0.772v2.582
			h-0.763v-6.563h1.701C136.836,58.473,137.656,59.11,137.656,60.385z M134.258,61.799h0.687c0.676,0,1.166-0.109,1.468-0.328
			c0.302-0.218,0.454-0.569,0.454-1.051c0-0.434-0.142-0.757-0.426-0.97c-0.284-0.212-0.727-0.319-1.329-0.319h-0.853V61.799z"/>
		<path fill="#3B4042" d="M140.703,60.026c0.219,0,0.415,0.018,0.588,0.054l-0.103,0.691c-0.203-0.045-0.383-0.068-0.539-0.068
			c-0.398,0-0.739,0.162-1.021,0.485c-0.283,0.323-0.424,0.726-0.424,1.208v2.64h-0.745v-4.92h0.615l0.085,0.911h0.036
			c0.183-0.32,0.402-0.567,0.66-0.741C140.112,60.113,140.395,60.026,140.703,60.026z"/>
		<path fill="#3B4042" d="M145.999,62.571c0,0.802-0.202,1.428-0.606,1.879c-0.404,0.45-0.962,0.676-1.675,0.676
			c-0.44,0-0.83-0.103-1.172-0.31c-0.341-0.207-0.605-0.503-0.79-0.889c-0.186-0.386-0.278-0.838-0.278-1.356
			c0-0.802,0.2-1.427,0.602-1.874s0.958-0.671,1.67-0.671c0.688,0,1.235,0.229,1.641,0.687
			C145.796,61.171,145.999,61.79,145.999,62.571z M142.25,62.571c0,0.628,0.126,1.107,0.377,1.437
			c0.251,0.329,0.621,0.494,1.109,0.494c0.488,0,0.858-0.164,1.111-0.492c0.253-0.328,0.379-0.807,0.379-1.439
			c0-0.625-0.126-1.1-0.379-1.425c-0.253-0.325-0.626-0.487-1.12-0.487c-0.488,0-0.856,0.16-1.104,0.48
			C142.374,61.46,142.25,61.937,142.25,62.571z"/>
		<path fill="#3B4042" d="M149.135,65.126c-0.32,0-0.613-0.059-0.878-0.177c-0.265-0.118-0.487-0.3-0.667-0.545h-0.054
			c0.036,0.287,0.054,0.56,0.054,0.817v2.025h-0.745v-7.129h0.606l0.103,0.673h0.036c0.191-0.269,0.414-0.464,0.669-0.584
			c0.254-0.12,0.546-0.18,0.875-0.18c0.652,0,1.156,0.223,1.511,0.669c0.355,0.446,0.532,1.071,0.532,1.876
			c0,0.808-0.18,1.436-0.541,1.883C150.276,64.902,149.775,65.126,149.135,65.126z M149.027,60.659
			c-0.503,0-0.867,0.139-1.091,0.417c-0.224,0.278-0.34,0.721-0.346,1.329v0.166c0,0.691,0.115,1.186,0.346,1.484
			c0.231,0.298,0.6,0.447,1.109,0.447c0.425,0,0.758-0.172,0.999-0.516c0.241-0.344,0.361-0.819,0.361-1.423
			c0-0.614-0.12-1.084-0.361-1.412C149.803,60.823,149.464,60.659,149.027,60.659z"/>
		<path fill="#3B4042" d="M154.098,65.126c-0.727,0-1.301-0.221-1.722-0.664c-0.421-0.443-0.631-1.058-0.631-1.845
			c0-0.793,0.195-1.423,0.586-1.89c0.391-0.467,0.915-0.701,1.574-0.701c0.617,0,1.104,0.203,1.463,0.608
			c0.359,0.406,0.539,0.941,0.539,1.605v0.471h-3.389c0.015,0.578,0.161,1.016,0.438,1.315c0.277,0.299,0.667,0.449,1.17,0.449
			c0.53,0,1.053-0.111,1.571-0.332v0.664c-0.263,0.114-0.513,0.195-0.748,0.245C154.714,65.101,154.43,65.126,154.098,65.126z
			 M153.896,60.65c-0.395,0-0.71,0.129-0.945,0.386c-0.235,0.258-0.373,0.614-0.415,1.069h2.572c0-0.47-0.105-0.83-0.314-1.08
			C154.585,60.775,154.285,60.65,153.896,60.65z"/>
		<path fill="#3B4042" d="M158.963,60.026c0.219,0,0.415,0.018,0.588,0.054l-0.103,0.691c-0.203-0.045-0.383-0.068-0.539-0.068
			c-0.398,0-0.739,0.162-1.021,0.485c-0.283,0.323-0.424,0.726-0.424,1.208v2.64h-0.745v-4.92h0.615l0.085,0.911h0.036
			c0.182-0.32,0.402-0.567,0.66-0.741C158.372,60.113,158.655,60.026,158.963,60.026z"/>
		<path fill="#3B4042" d="M161.601,64.511c0.131,0,0.259-0.01,0.381-0.029c0.123-0.019,0.22-0.04,0.292-0.061v0.57
			c-0.081,0.039-0.2,0.071-0.357,0.097c-0.157,0.025-0.298,0.038-0.424,0.038c-0.952,0-1.427-0.501-1.427-1.504v-2.927h-0.705
			v-0.359l0.705-0.31l0.314-1.05h0.431v1.14h1.427v0.579h-1.427v2.895c0,0.297,0.07,0.524,0.211,0.683
			C161.163,64.432,161.356,64.511,161.601,64.511z"/>
		<path fill="#3B4042" d="M162.017,60.116h0.799l1.077,2.806c0.236,0.641,0.383,1.103,0.44,1.387h0.036
			c0.039-0.153,0.12-0.414,0.245-0.784c0.124-0.37,0.53-1.506,1.219-3.409h0.799l-2.114,5.603c-0.21,0.554-0.454,0.947-0.734,1.179
			c-0.28,0.232-0.623,0.348-1.03,0.348c-0.228,0-0.452-0.026-0.673-0.076v-0.597c0.165,0.036,0.349,0.054,0.552,0.054
			c0.512,0,0.877-0.287,1.095-0.862l0.274-0.7L162.017,60.116z"/>
		<path fill="#3B4042" d="M171.917,65.036l-2.227-5.818h-0.036c0.042,0.461,0.063,1.009,0.063,1.643v4.175h-0.705v-6.563h1.149
			l2.079,5.414h0.036l2.096-5.414h1.14v6.563h-0.763v-4.229c0-0.485,0.021-1.012,0.063-1.58h-0.036l-2.245,5.809H171.917z"/>
		<path fill="#3B4042" d="M179.767,65.036l-0.148-0.7h-0.036c-0.245,0.308-0.49,0.517-0.734,0.626
			c-0.244,0.109-0.548,0.164-0.913,0.164c-0.488,0-0.87-0.126-1.147-0.377c-0.277-0.251-0.415-0.609-0.415-1.073
			c0-0.994,0.795-1.514,2.384-1.562l0.835-0.027v-0.305c0-0.386-0.083-0.671-0.249-0.855s-0.432-0.276-0.797-0.276
			c-0.41,0-0.874,0.126-1.392,0.377l-0.229-0.57c0.242-0.132,0.508-0.235,0.797-0.31c0.289-0.075,0.578-0.112,0.869-0.112
			c0.586,0,1.021,0.13,1.304,0.391s0.424,0.678,0.424,1.253v3.358H179.767z M178.084,64.511c0.464,0,0.828-0.127,1.093-0.381
			c0.265-0.255,0.397-0.611,0.397-1.069v-0.444l-0.745,0.031c-0.593,0.021-1.02,0.113-1.282,0.276
			c-0.262,0.163-0.393,0.417-0.393,0.761c0,0.269,0.082,0.475,0.245,0.615C177.562,64.441,177.79,64.511,178.084,64.511z"/>
		<path fill="#3B4042" d="M184.762,65.036v-3.183c0-0.401-0.091-0.701-0.274-0.898c-0.182-0.198-0.468-0.296-0.857-0.296
			c-0.515,0-0.892,0.139-1.132,0.417c-0.239,0.278-0.359,0.738-0.359,1.378v2.582h-0.745v-4.92h0.606l0.121,0.673h0.036
			c0.153-0.242,0.367-0.43,0.642-0.564c0.276-0.133,0.582-0.2,0.92-0.2c0.593,0,1.038,0.143,1.338,0.429
			c0.299,0.286,0.449,0.743,0.449,1.372v3.21H184.762z"/>
		<path fill="#3B4042" d="M189.604,65.036l-0.148-0.7h-0.036c-0.245,0.308-0.49,0.517-0.734,0.626
			c-0.244,0.109-0.548,0.164-0.913,0.164c-0.488,0-0.87-0.126-1.147-0.377c-0.277-0.251-0.415-0.609-0.415-1.073
			c0-0.994,0.795-1.514,2.384-1.562l0.835-0.027v-0.305c0-0.386-0.083-0.671-0.249-0.855s-0.432-0.276-0.797-0.276
			c-0.41,0-0.874,0.126-1.392,0.377l-0.229-0.57c0.242-0.132,0.508-0.235,0.797-0.31c0.289-0.075,0.578-0.112,0.869-0.112
			c0.586,0,1.021,0.13,1.304,0.391s0.424,0.678,0.424,1.253v3.358H189.604z M187.921,64.511c0.464,0,0.828-0.127,1.093-0.381
			c0.265-0.255,0.397-0.611,0.397-1.069v-0.444l-0.745,0.031c-0.593,0.021-1.02,0.113-1.282,0.276
			c-0.262,0.163-0.393,0.417-0.393,0.761c0,0.269,0.082,0.475,0.245,0.615C187.399,64.441,187.627,64.511,187.921,64.511z"/>
		<path fill="#3B4042" d="M195.259,60.116v0.471l-0.911,0.108c0.084,0.105,0.158,0.242,0.224,0.411
			c0.066,0.169,0.099,0.36,0.099,0.572c0,0.482-0.165,0.866-0.494,1.154c-0.329,0.287-0.781,0.431-1.356,0.431
			c-0.147,0-0.284-0.012-0.413-0.036c-0.317,0.168-0.476,0.379-0.476,0.633c0,0.135,0.055,0.234,0.166,0.299
			c0.111,0.064,0.301,0.096,0.57,0.096h0.871c0.533,0,0.942,0.112,1.228,0.337c0.286,0.224,0.429,0.551,0.429,0.979
			c0,0.545-0.218,0.96-0.656,1.246c-0.437,0.286-1.074,0.429-1.912,0.429c-0.644,0-1.14-0.12-1.488-0.359
			c-0.349-0.239-0.523-0.578-0.523-1.015c0-0.299,0.096-0.558,0.287-0.777c0.192-0.218,0.461-0.367,0.808-0.444
			c-0.126-0.057-0.231-0.145-0.317-0.265c-0.085-0.12-0.128-0.259-0.128-0.418c0-0.179,0.048-0.337,0.144-0.471
			c0.096-0.135,0.247-0.265,0.454-0.391c-0.255-0.105-0.462-0.283-0.622-0.534c-0.16-0.251-0.24-0.539-0.24-0.862
			c0-0.539,0.162-0.954,0.485-1.246c0.323-0.292,0.781-0.438,1.374-0.438c0.257,0,0.489,0.03,0.696,0.09H195.259z M191.335,65.862
			c0,0.266,0.112,0.468,0.337,0.606c0.224,0.138,0.546,0.207,0.965,0.207c0.626,0,1.089-0.093,1.389-0.28
			c0.301-0.187,0.451-0.441,0.451-0.761c0-0.266-0.082-0.451-0.247-0.555c-0.165-0.103-0.475-0.155-0.929-0.155h-0.893
			c-0.338,0-0.602,0.081-0.79,0.242S191.335,65.56,191.335,65.862z M191.739,61.692c0,0.344,0.097,0.605,0.292,0.781
			c0.194,0.177,0.465,0.265,0.812,0.265c0.727,0,1.091-0.353,1.091-1.059c0-0.739-0.368-1.109-1.104-1.109
			c-0.35,0-0.62,0.094-0.808,0.283S191.739,61.32,191.739,61.692z"/>
		<path fill="#3B4042" d="M197.888,65.126c-0.727,0-1.301-0.221-1.722-0.664c-0.421-0.443-0.631-1.058-0.631-1.845
			c0-0.793,0.195-1.423,0.586-1.89c0.391-0.467,0.915-0.701,1.574-0.701c0.617,0,1.104,0.203,1.463,0.608
			c0.359,0.406,0.539,0.941,0.539,1.605v0.471h-3.389c0.015,0.578,0.161,1.016,0.438,1.315c0.277,0.299,0.667,0.449,1.17,0.449
			c0.53,0,1.053-0.111,1.571-0.332v0.664c-0.263,0.114-0.513,0.195-0.748,0.245C198.504,65.101,198.22,65.126,197.888,65.126z
			 M197.686,60.65c-0.395,0-0.71,0.129-0.945,0.386c-0.235,0.258-0.373,0.614-0.415,1.069h2.572c0-0.47-0.105-0.83-0.314-1.08
			C198.375,60.775,198.075,60.65,197.686,60.65z"/>
		<path fill="#3B4042" d="M206.78,65.036v-3.201c0-0.392-0.084-0.686-0.252-0.882c-0.168-0.196-0.428-0.294-0.781-0.294
			c-0.464,0-0.807,0.133-1.028,0.399c-0.221,0.266-0.332,0.676-0.332,1.23v2.748h-0.745v-3.201c0-0.392-0.084-0.686-0.252-0.882
			c-0.168-0.196-0.429-0.294-0.786-0.294c-0.467,0-0.809,0.14-1.026,0.42c-0.217,0.28-0.325,0.738-0.325,1.376v2.582h-0.745v-4.92
			h0.606l0.121,0.673h0.036c0.141-0.24,0.339-0.427,0.595-0.561c0.256-0.135,0.543-0.202,0.86-0.202
			c0.769,0,1.272,0.279,1.508,0.835h0.036c0.147-0.257,0.359-0.461,0.638-0.611c0.278-0.149,0.596-0.224,0.952-0.224
			c0.557,0,0.973,0.143,1.25,0.429c0.277,0.286,0.415,0.743,0.415,1.372v3.21H206.78z"/>
		<path fill="#3B4042" d="M210.679,65.126c-0.727,0-1.301-0.221-1.722-0.664c-0.421-0.443-0.631-1.058-0.631-1.845
			c0-0.793,0.195-1.423,0.586-1.89c0.391-0.467,0.915-0.701,1.574-0.701c0.617,0,1.104,0.203,1.463,0.608
			c0.359,0.406,0.539,0.941,0.539,1.605v0.471h-3.389c0.015,0.578,0.161,1.016,0.438,1.315c0.277,0.299,0.667,0.449,1.17,0.449
			c0.53,0,1.053-0.111,1.571-0.332v0.664c-0.263,0.114-0.513,0.195-0.748,0.245C211.295,65.101,211.011,65.126,210.679,65.126z
			 M210.477,60.65c-0.395,0-0.71,0.129-0.945,0.386c-0.235,0.258-0.373,0.614-0.415,1.069h2.572c0-0.47-0.105-0.83-0.314-1.08
			C211.166,60.775,210.866,60.65,210.477,60.65z"/>
		<path fill="#3B4042" d="M216.666,65.036v-3.183c0-0.401-0.091-0.701-0.274-0.898c-0.183-0.198-0.468-0.296-0.857-0.296
			c-0.515,0-0.892,0.139-1.132,0.417c-0.239,0.278-0.359,0.738-0.359,1.378v2.582h-0.745v-4.92h0.606l0.121,0.673h0.036
			c0.153-0.242,0.367-0.43,0.642-0.564c0.276-0.133,0.582-0.2,0.92-0.2c0.593,0,1.038,0.143,1.338,0.429
			c0.299,0.286,0.449,0.743,0.449,1.372v3.21H216.666z"/>
		<path fill="#3B4042" d="M220.072,64.511c0.131,0,0.259-0.01,0.381-0.029c0.123-0.019,0.22-0.04,0.292-0.061v0.57
			c-0.081,0.039-0.2,0.071-0.357,0.097c-0.157,0.025-0.298,0.038-0.424,0.038c-0.952,0-1.427-0.501-1.427-1.504v-2.927h-0.705
			v-0.359l0.705-0.31l0.314-1.05h0.431v1.14h1.427v0.579h-1.427v2.895c0,0.297,0.07,0.524,0.211,0.683
			C219.634,64.432,219.827,64.511,220.072,64.511z"/>
		<path fill="#3B4042" d="M227.014,63.29c0,0.578-0.21,1.028-0.628,1.351c-0.419,0.323-0.988,0.485-1.706,0.485
			c-0.778,0-1.377-0.1-1.796-0.301v-0.736c0.269,0.114,0.562,0.203,0.88,0.269c0.317,0.066,0.631,0.099,0.943,0.099
			c0.509,0,0.892-0.096,1.149-0.29c0.257-0.193,0.386-0.462,0.386-0.806c0-0.228-0.046-0.414-0.137-0.559
			c-0.091-0.145-0.244-0.279-0.458-0.402c-0.214-0.123-0.54-0.262-0.976-0.417c-0.611-0.219-1.047-0.478-1.309-0.777
			c-0.262-0.299-0.393-0.69-0.393-1.172c0-0.506,0.19-0.908,0.57-1.208c0.38-0.299,0.883-0.449,1.509-0.449
			c0.652,0,1.252,0.12,1.8,0.359l-0.238,0.665c-0.542-0.228-1.069-0.341-1.58-0.341c-0.404,0-0.72,0.087-0.947,0.26
			c-0.228,0.174-0.341,0.415-0.341,0.723c0,0.228,0.042,0.414,0.126,0.559c0.084,0.145,0.225,0.278,0.424,0.4
			c0.199,0.121,0.503,0.255,0.913,0.402c0.688,0.245,1.162,0.509,1.421,0.79C226.884,62.476,227.014,62.841,227.014,63.29z"/>
		<path fill="#3B4042" d="M227.003,60.116h0.799l1.077,2.806c0.236,0.641,0.383,1.103,0.44,1.387h0.036
			c0.039-0.153,0.12-0.414,0.245-0.784c0.124-0.37,0.53-1.506,1.219-3.409h0.799l-2.114,5.603c-0.21,0.554-0.454,0.947-0.734,1.179
			c-0.28,0.232-0.623,0.348-1.03,0.348c-0.228,0-0.452-0.026-0.673-0.076v-0.597c0.165,0.036,0.349,0.054,0.552,0.054
			c0.512,0,0.877-0.287,1.095-0.862l0.274-0.7L227.003,60.116z"/>
		<path fill="#3B4042" d="M235.132,63.694c0,0.458-0.171,0.811-0.512,1.059c-0.341,0.249-0.82,0.373-1.437,0.373
			c-0.652,0-1.161-0.103-1.526-0.31v-0.691c0.236,0.12,0.49,0.214,0.761,0.283c0.271,0.069,0.532,0.103,0.783,0.103
			c0.389,0,0.688-0.062,0.898-0.186c0.21-0.124,0.314-0.314,0.314-0.568c0-0.192-0.083-0.356-0.249-0.492
			c-0.166-0.136-0.49-0.297-0.972-0.482c-0.458-0.171-0.784-0.319-0.977-0.447c-0.193-0.127-0.337-0.272-0.431-0.433
			s-0.141-0.355-0.141-0.579c0-0.401,0.163-0.718,0.489-0.95c0.326-0.232,0.774-0.348,1.342-0.348c0.53,0,1.048,0.108,1.553,0.323
			l-0.265,0.606c-0.494-0.203-0.941-0.305-1.342-0.305c-0.353,0-0.62,0.055-0.799,0.166s-0.27,0.263-0.27,0.458
			c0,0.132,0.034,0.244,0.101,0.337c0.067,0.093,0.176,0.181,0.325,0.265c0.15,0.084,0.437,0.205,0.862,0.364
			c0.584,0.213,0.978,0.426,1.183,0.642C235.029,63.097,235.132,63.368,235.132,63.694z"/>
		<path fill="#3B4042" d="M237.473,64.511c0.131,0,0.259-0.01,0.381-0.029c0.123-0.019,0.22-0.04,0.292-0.061v0.57
			c-0.081,0.039-0.2,0.071-0.357,0.097c-0.157,0.025-0.298,0.038-0.424,0.038c-0.952,0-1.427-0.501-1.427-1.504v-2.927h-0.705
			v-0.359l0.705-0.31l0.314-1.05h0.431v1.14h1.427v0.579h-1.427v2.895c0,0.297,0.07,0.524,0.211,0.683
			C237.035,64.432,237.228,64.511,237.473,64.511z"/>
		<path fill="#3B4042" d="M240.749,65.126c-0.727,0-1.301-0.221-1.722-0.664c-0.421-0.443-0.631-1.058-0.631-1.845
			c0-0.793,0.195-1.423,0.586-1.89c0.391-0.467,0.915-0.701,1.574-0.701c0.617,0,1.104,0.203,1.463,0.608
			c0.359,0.406,0.539,0.941,0.539,1.605v0.471h-3.389c0.015,0.578,0.161,1.016,0.438,1.315c0.277,0.299,0.667,0.449,1.17,0.449
			c0.53,0,1.053-0.111,1.571-0.332v0.664c-0.263,0.114-0.513,0.195-0.748,0.245C241.365,65.101,241.081,65.126,240.749,65.126z
			 M240.547,60.65c-0.395,0-0.71,0.129-0.945,0.386c-0.235,0.258-0.373,0.614-0.415,1.069h2.572c0-0.47-0.105-0.83-0.314-1.08
			C241.235,60.775,240.936,60.65,240.547,60.65z"/>
		<path fill="#3B4042" d="M249.641,65.036v-3.201c0-0.392-0.084-0.686-0.252-0.882c-0.168-0.196-0.428-0.294-0.781-0.294
			c-0.464,0-0.807,0.133-1.028,0.399c-0.221,0.266-0.332,0.676-0.332,1.23v2.748h-0.745v-3.201c0-0.392-0.084-0.686-0.252-0.882
			c-0.168-0.196-0.43-0.294-0.786-0.294c-0.467,0-0.809,0.14-1.026,0.42c-0.217,0.28-0.325,0.738-0.325,1.376v2.582h-0.745v-4.92
			h0.606l0.121,0.673h0.036c0.141-0.24,0.339-0.427,0.595-0.561c0.256-0.135,0.543-0.202,0.86-0.202
			c0.769,0,1.272,0.279,1.508,0.835h0.036c0.147-0.257,0.359-0.461,0.638-0.611c0.278-0.149,0.596-0.224,0.952-0.224
			c0.557,0,0.973,0.143,1.25,0.429c0.277,0.286,0.415,0.743,0.415,1.372v3.21H249.641z"/>
	</g>
	<g>
		<path fill="#00AEFB" d="M28.491,28.638h-5.709v8.564h6.423c2.77,0,4.827-1.679,4.827-4.282
			C34.032,29.897,31.892,28.638,28.491,28.638z"/>
		<path fill="#00AEFB" d="M84.71,10.777c-1.363,0-2.702,0.103-4.012,0.294C74.859,4.514,66.358,0.38,56.887,0.38
			c-9.12,0-17.34,3.836-23.151,9.975c-1.58-0.277-3.203-0.43-4.862-0.43c-15.446,0-27.968,12.522-27.968,27.968
			c0,15.046,11.883,27.312,26.776,27.938v0.081H84.71c15.225,0,27.567-12.342,27.567-27.567S99.935,10.777,84.71,10.777z
			 M30.422,42.491h-7.64v8.186c0,2.057-1.343,3.442-3.442,3.442s-3.442-1.385-3.442-3.442V27.379c0-3.064,1.595-4.03,4.03-4.03
			h10.536c5.794,0,10.453,2.855,10.453,9.571C40.917,38.419,37.097,42.491,30.422,42.491z M74.372,50.76
			c0,1.721-0.84,3.358-3.065,3.358s-3.065-1.637-3.065-3.358V32.039H68.16l-6.423,20.065c-0.461,1.428-1.511,2.015-2.938,2.015
			c-1.427,0-2.477-0.587-2.938-2.015l-6.423-20.065h-0.083V50.76c0,1.721-0.84,3.358-3.065,3.358c-2.225,0-3.065-1.637-3.065-3.358
			V26.203c0-2.771,1.889-3.4,3.736-3.4h2.015c2.141,0,3.148,0.84,3.862,3.148l6.003,19.394h0.085l5.919-19.394
			c0.713-2.309,1.721-3.148,3.862-3.148h1.931c1.847,0,3.736,0.629,3.736,3.4V50.76z M89.819,54.286
			c-8.731,0-12.636-4.366-12.636-7.639c0-1.679,1.218-2.855,2.897-2.855c3.736,0,2.77,5.457,9.739,5.457
			c3.568,0,5.541-1.973,5.541-3.988c0-1.218-0.588-2.561-2.939-3.148l-7.766-1.973c-6.254-1.595-7.388-5.037-7.388-8.269
			c0-6.716,6.213-9.235,12.048-9.235c5.373,0,11.712,3.022,11.712,7.052c0,1.721-1.469,2.728-3.148,2.728
			c-3.19,0-2.603-4.492-9.026-4.492c-3.19,0-4.953,1.47-4.953,3.568s2.519,2.771,4.702,3.274l5.751,1.302
			c6.296,1.427,7.892,5.163,7.892,8.689C102.245,50.215,98.13,54.286,89.819,54.286z"/>
	</g>
</g>
</svg>
